<?xml version="1.0" encoding="iso-8859-1"?>
<!-- Uploaded to: SVG Repo, www.svgrepo.com, Generator: SVG Repo Mixer Tools -->
<!DOCTYPE svg PUBLIC "-//W3C//DTD SVG 1.1//EN" "http://www.w3.org/Graphics/SVG/1.1/DTD/svg11.dtd">
<svg fill="#000000" version="1.1" id="Capa_1" xmlns="http://www.w3.org/2000/svg" xmlns:xlink="http://www.w3.org/1999/xlink" 
	 width="800px" height="800px" viewBox="0 0 458.901 458.901"
	 xml:space="preserve">
<g>
	<path d="M451.193,95.433l0.331-0.815L238.642,7.907l-36.117,13.722c3.765,4.084,7.329,8.438,10.713,12.915l25.204-9.581
		l51.187,20.853c15.628-2.495,29.619-1.702,41.601,2.636c13.973,5.068,24.748,14.316,32.313,27.473l67.46,27.485l-55.366,21.841
		c-0.408,6.517-1.969,13.261-5.609,19.274l65.799-25.951v244.668L237.4,441.494V196.827l92.303-36.407
		c-8.346-1.052-17.2-3.484-26.444-6.632l-73.791,29.107l-70.953-27.987l35-15.95c-2.929-1.247-5.568-3.115-7.625-5.66
		c-3.112-3.831-4.655-8.562-4.412-13.447c-1.871-2.185-7.374-4.673-13.902-7.046l-55.993,23.581l-81.705-32.226l56.351-21.4
		c-4.445-3.644-7.998-7.923-10.447-13.006L7.957,95.513l-0.727-0.284v0.556L7.2,95.803l0.029,0.092v278.134L221.53,458.57v0.331
		h15.87v-0.331l214.301-84.541V95.235L451.193,95.433z M96.523,392.198l-73.417-28.962V118.568l73.417,28.96V392.198z
		 M221.53,441.494l-83.232-33.608l0.281-243.766l82.952,32.707V441.494z M143.431,97.408c19.313,5.24,48.524,13.151,47.514,22.824
		c-0.683,6.537,4.067,12.389,10.604,13.075l0,0c3.402,0.354,6.597-0.789,8.999-2.858c0.674,0.594,1.375,1.173,2.205,1.617
		c5.834,3.038,13.024,0.798,16.068-5.012c0.115-0.236,0.334-0.381,0.49-0.588c2.905,1.67,6.49,2.155,9.921,0.94
		c1.514-0.541,2.844-1.368,3.973-2.385c12.229,2.24,29.436,8.89,41.541,13.562c17.572,6.786,34.578,13.346,48.953,14.842
		c10.32,1.084,19.28-0.473,26.102-6.434c14.416-12.596,8.653-36.765,6.768-44.712c-5.621-23.587-17.921-38.967-36.569-45.72
		c-30.405-11.015-70.208,4.927-98.799,20.602C216.27,47.677,191.158,9.553,158.365,1.553c-19.272-4.705-38.018,1.294-55.765,17.835
		C85.854,34.993,79.249,48.809,82.409,61.606C87.536,82.252,114.681,89.611,143.431,97.408z M321.907,78.945
		c10.774,3.918,17.809,13.352,21.497,28.859c4.196,17.625,0.763,21.234,0.732,21.27c-5.508,4.799-34.974-6.591-50.82-12.699
		c-17.153-6.632-35.477-13.704-51.199-15.348c-0.271-0.691-0.556-1.383-0.869-2.113C267.191,84.575,300.421,71.205,321.907,78.945z
		 M118.84,36.807c11.665-10.87,22.727-14.815,33.877-12.117c23.079,5.624,44.219,37.649,57.887,64.77
		c-3.286,2.137-6.23,4.108-8.588,5.73c-12.814-9.986-33.319-15.596-52.36-20.773c-15.853-4.297-42.377-11.481-44.124-18.53
		C105.481,55.668,104.361,50.311,118.84,36.807z"/>
</g>
</svg>